<?xml version="1.0" standalone="no"?><!DOCTYPE svg PUBLIC "-//W3C//DTD SVG 1.1//EN" "http://www.w3.org/Graphics/SVG/1.1/DTD/svg11.dtd"><svg t="1501146289821" class="icon" style="" viewBox="0 0 1024 1024" version="1.1" xmlns="http://www.w3.org/2000/svg" p-id="998" xmlns:xlink="http://www.w3.org/1999/xlink" width="200" height="200"><defs><style type="text/css"></style></defs><path d="M242.926933 145.134933l357.888 357.922133L238.216533 865.723733l0 0.034133C226.372267 878.011733 219.101867 894.702933 219.101867 913.134933c0 37.717333 30.583467 68.334933 68.334933 68.334933 18.397867 0 35.1232-7.304533 47.4112-19.182933l0 0.068267 409.9072-409.941333-0.034133-0.034133c12.9024-12.424533 20.923733-29.832533 20.923733-49.186133 0 0 0-0.068267 0-0.136533 0 0 0-0.068267 0-0.136533 0-19.285333-8.021333-36.693333-20.923733-49.117867l0.034133 0L334.848 43.861333 334.677333 44.032C322.389333 32.256 305.7664 25.019733 287.4368 25.019733 249.685333 25.019733 219.101867 55.6032 219.101867 93.320533 219.101867 114.039467 228.352 132.608 242.926933 145.134933z" p-id="999"></path></svg>