<?xml version="1.0" standalone="no"?><!DOCTYPE svg PUBLIC "-//W3C//DTD SVG 1.1//EN" "http://www.w3.org/Graphics/SVG/1.1/DTD/svg11.dtd"><svg t="1501212101728" class="icon" style="" viewBox="0 0 1024 1024" version="1.1" xmlns="http://www.w3.org/2000/svg" p-id="3364" xmlns:xlink="http://www.w3.org/1999/xlink" width="200" height="200"><defs><style type="text/css"></style></defs><path d="M831.509964 447.725114 575.667042 447.725114 575.667042 191.882192c0-35.32453-28.636201-63.960731-63.960731-63.960731l0 0c-35.32453 0-63.960731 28.636201-63.960731 63.960731l0 255.842922L191.902658 447.725114c-35.32453 0-63.960731 28.636201-63.960731 63.960731l0 0c0 35.32453 28.636201 63.960731 63.960731 63.960731l255.842922 0 0 255.842922c0 35.32453 28.636201 63.960731 63.960731 63.960731l0 0c35.32453 0 63.960731-28.636201 63.960731-63.960731L575.667042 575.645552l255.842922 0c35.32453 0 63.960731-28.636201 63.960731-63.960731l0 0C895.470695 476.360292 866.834494 447.725114 831.509964 447.725114z" p-id="3365"></path></svg>