<?xml version="1.0" standalone="no"?><!DOCTYPE svg PUBLIC "-//W3C//DTD SVG 1.1//EN" "http://www.w3.org/Graphics/SVG/1.1/DTD/svg11.dtd"><svg t="1501146112142" class="icon" style="" viewBox="0 0 1024 1024" version="1.1" xmlns="http://www.w3.org/2000/svg" p-id="1655" xmlns:xlink="http://www.w3.org/1999/xlink" width="200" height="200"><defs><style type="text/css"></style></defs><path d="M41.298857 1024.000013c0 0-2.249398-132.743504 27.234003-160.894443 29.478348-28.150939 41.427562-78.804694 197.698173-101.94785 156.197357-23.068639 139.856703-105.341522 144.903638-102.732171-0.942196-31.155608-3.955706-75.009388-3.955706-75.009388S325.775023 548.935082 301.778082 480.683991C251.523434 460.470988 258.169324 447.486117 253.265106 421.377444c0 0-15.249425-105.918712 18.737823-103.699626 0 0 22.073397 0 16.666508-24.361948-1.782089-40.489156-1.741673-119.042513 0.942196-145.979712 2.68892-27.040764 22.693529-100.012938 79.40588-110.812825 56.750241-10.804939 33.987248-5.333636 52.867789-8.12107 18.915905-2.683868 13.503963-13.487544 48.615278-13.487544l72.869871-14.914731c35.111315 0 57.583819 57.303434 76.465623 60.056767 18.914642 2.683868 23.419752-8.258737 62.12303-1.03692 56.676987 10.804939 48.798413 87.961422 51.487333 115.002186 2.723021 27.006663 7.696703 100.408256 2.283498 124.69695-5.40689 24.287431 11.441489 21.603563 11.441489 21.603563 40.519468 0 27.811193 103.733727 27.811193 103.733727-6.211419 27.439871-23.163364 30.731241-60.890345 54.590517-23.92874 68.246039-100.502981 118.504476-100.502981 118.504476s-0.359954 56.627731-0.650443 68.892694c1.089966 4.863801-8.678052 75.296088 124.49866 95.113773 156.270611 23.109055 183.248225 73.796911 212.657109 101.94785 29.4834 28.150939 32.645945 160.894443 32.645945 160.894443L41.298857 1024.000013 41.298857 1024.000013 41.298857 1024.000013zM41.298857 1024.000013" p-id="1656"></path></svg>